<svg width="100" height="100" viewBox="0 0 100 100" fill="none" xmlns="http://www.w3.org/2000/svg">
<g clip-path="url(#clip0_16_2)">
<rect width="100" height="100" rx="50" fill="white"/>
<path d="M45.6958 68.9749C48.8056 68.968 51.103 68.886 52.5881 68.7291C54.1262 68.5665 56.4109 68.1105 59.4423 67.361C60.4306 67.5783 61.0295 67.9173 61.2391 68.3778C61.4487 68.8383 61.555 69.3366 61.558 69.8726C61.5554 70.3555 61.6324 70.83 61.7889 71.2962C61.9454 71.7623 62.4913 72.1068 63.4266 72.3297C63.9208 72.4384 64.1038 72.9017 63.9758 73.7197C63.8951 74.4791 63.5577 75.346 62.9635 76.3205C61.4543 78.7862 59.554 80.5959 57.2626 81.7498C53.5448 83.1082 50.607 83.9818 48.4493 84.3707C44.8708 85.0171 40.9319 85.2994 36.6329 85.2175C31.8758 84.8622 29.4171 83.1646 29.2567 80.1246C28.0794 68.9867 29.3363 57.5378 33.0273 45.778C34.2316 41.9502 35.6285 37.9144 37.2179 33.6704C37.5525 32.777 37.6902 31.7971 37.6311 30.7307C37.6251 29.6588 37.5953 28.6161 37.5419 27.6028C37.4884 26.5895 37.5522 25.671 37.7333 24.8474C37.9144 24.0238 38.4124 23.408 39.2274 23.0001C49.794 17.4319 58.3393 14.8125 64.8634 15.1419C67.0966 14.9595 68.6365 15.5744 69.4829 16.9866C70.3768 18.3401 70.6274 19.9494 70.2345 21.8143C69.8948 23.6737 68.9869 25.4858 67.5109 27.2507C66.0879 29.01 64.1762 30.2043 61.7757 30.8334C58.7418 32.0658 56.8969 32.8775 56.241 33.2687C54.9823 34.0453 54.1173 34.9948 53.6461 36.1172C53.0269 37.3625 52.4551 38.5492 51.9308 39.6772C51.4064 40.8052 51.0761 41.9932 50.9399 43.2411L50.8066 45.025C51.8648 45.3958 53.1015 45.426 54.5167 45.1155C55.9793 44.7464 57.3122 44.4178 58.5152 44.1298C59.7657 43.7831 60.7706 43.65 61.53 43.7307C62.3424 43.8057 62.5856 44.5844 62.2596 46.0669C61.9811 47.4908 61.3243 49.1423 60.2895 51.0215C59.3076 52.895 57.7715 54.3445 55.681 55.37C54.3301 55.7809 53.3978 56.094 52.8843 56.3091C52.4181 56.4657 52.0553 56.5845 51.7957 56.6655C51.43 56.7578 50.3777 56.9495 48.6386 57.2406C46.5943 61.7471 45.4303 65.1952 45.1466 67.5849C45.0354 68.562 45.2184 69.0253 45.6958 68.9749Z" fill="#DF826C"/>
</g>
<defs>
<clipPath id="clip0_16_2">
<rect width="100" height="100" rx="50" fill="white"/>
</clipPath>
</defs>
</svg>
